<svg width="100" height="100" viewBox="0 0 100 100" fill="none" xmlns="http://www.w3.org/2000/svg">
<path d="M49.1054 12.9472L18.4554 28.2722C17.6748 28.6625 17.2845 28.8576 17.2845 29.1667C17.2845 29.4757 17.6748 29.6708 18.4554 30.0611L49.1054 45.3861C49.5443 45.6056 49.7638 45.7153 49.9998 45.7153C50.2359 45.7153 50.4554 45.6056 50.8943 45.3861L81.5443 30.0611C82.3249 29.6708 82.7151 29.4757 82.7151 29.1667C82.7151 28.8576 82.3249 28.6625 81.5443 28.2722L50.8943 12.9472C50.4554 12.7278 50.2359 12.618 49.9998 12.618C49.7638 12.618 49.5443 12.7278 49.1054 12.9472Z" />
<path fill-rule="evenodd" clip-rule="evenodd" d="M29.1657 43.7516L48.2111 53.2743C49.0889 53.7132 49.5278 53.9327 49.9999 53.9327C50.4721 53.9327 50.911 53.7132 51.7888 53.2743L70.8342 43.7516L81.5444 49.1067C82.325 49.497 82.7153 49.6921 82.7153 50.0011C82.7153 50.3102 82.325 50.5053 81.5444 50.8956L50.8944 66.2206C50.4555 66.44 50.236 66.5498 50 66.5498C49.7639 66.5498 49.5444 66.44 49.1055 66.2206L18.4555 50.8956C17.6749 50.5053 17.2847 50.3102 17.2847 50.0011C17.2847 49.6921 17.6749 49.497 18.4555 49.1067L29.1657 43.7516Z" />
<path fill-rule="evenodd" clip-rule="evenodd" d="M29.1636 64.585L48.2112 74.1087C49.089 74.5476 49.5279 74.7671 50 74.7671C50.4722 74.7671 50.9111 74.5476 51.7889 74.1087L70.8364 64.585L81.5444 69.939C82.325 70.3293 82.7153 70.5245 82.7153 70.8335C82.7153 71.1425 82.325 71.3376 81.5444 71.7279L50.8944 87.0529C50.4555 87.2724 50.236 87.3821 50 87.3821C49.7639 87.3821 49.5444 87.2724 49.1055 87.0529L18.4555 71.7279C17.6749 71.3376 17.2847 71.1425 17.2847 70.8335C17.2847 70.5245 17.6749 70.3293 18.4555 69.939L29.1636 64.585Z" />
</svg>
