<svg width="90" height="90" viewBox="0 0 90 90" fill="none" xmlns="http://www.w3.org/2000/svg">
<circle cx="65.625" cy="65.625" r="9.375" stroke="#222021" stroke-width="2"/>
<path d="M78.75 78.75L73.125 73.125" stroke="#222021" stroke-width="2" stroke-linecap="round"/>
<path fill-rule="evenodd" clip-rule="evenodd" d="M15 15.5C15 11.7288 15 9.84315 16.1716 8.67157C17.3431 7.5 19.2288 7.5 23 7.5H67C70.7712 7.5 72.6569 7.5 73.8284 8.67157C75 9.84315 75 11.7288 75 15.5V58.3354C72.8271 55.5449 69.4357 53.75 65.625 53.75C59.0666 53.75 53.75 59.0666 53.75 65.625C53.75 72.1834 59.0666 77.5 65.625 77.5C67.9996 77.5 70.2114 76.803 72.067 75.6025L74.9043 78.4398C74.7794 79.7732 74.4916 80.6652 73.8284 81.3284C72.6569 82.5 70.7712 82.5 67 82.5H23C19.2288 82.5 17.3431 82.5 16.1716 81.3284C15 80.1569 15 78.2712 15 74.5V15.5ZM65.625 58.75C61.828 58.75 58.75 61.828 58.75 65.625C58.75 69.422 61.828 72.5 65.625 72.5C69.422 72.5 72.5 69.422 72.5 65.625C72.5 61.828 69.422 58.75 65.625 58.75ZM30 21.5C29.4477 21.5 29 21.9477 29 22.5C29 23.0523 29.4477 23.5 30 23.5H45C45.5523 23.5 46 23.0523 46 22.5C46 21.9477 45.5523 21.5 45 21.5H30ZM30 36.5C29.4477 36.5 29 36.9477 29 37.5C29 38.0523 29.4477 38.5 30 38.5H52.5C53.0523 38.5 53.5 38.0523 53.5 37.5C53.5 36.9477 53.0523 36.5 52.5 36.5H30ZM30 51.5C29.4477 51.5 29 51.9477 29 52.5C29 53.0523 29.4477 53.5 30 53.5H41.25C41.8023 53.5 42.25 53.0523 42.25 52.5C42.25 51.9477 41.8023 51.5 41.25 51.5H30Z" />
</svg>
