<svg width="80" height="80" viewBox="0 0 80 80" fill="none" xmlns="http://www.w3.org/2000/svg">
<path fill-rule="evenodd" clip-rule="evenodd" d="M42.2352 24.4312L53.838 12.8284L53.838 12.8284C55.1714 11.495 55.838 10.8284 56.6664 10.8284C57.4949 10.8284 58.1615 11.495 59.4948 12.8284L59.4949 12.8284L67.1713 20.5048C68.5047 21.8382 69.1713 22.5048 69.1713 23.3333C69.1713 24.1617 68.5047 24.8284 67.1713 26.1617L55.6391 37.6939C50.1297 34.4387 45.5289 29.8718 42.2352 24.4312ZM40.781 25.8853L14.1895 52.4769C13.7644 52.902 13.5519 53.1145 13.4122 53.3756C13.2724 53.6367 13.2135 53.9314 13.0956 54.5209L10.1469 69.2645C10.0803 69.5971 10.0471 69.7634 10.1417 69.858C10.2363 69.9526 10.4026 69.9194 10.7352 69.8529L25.4789 66.9041C26.0683 66.7862 26.363 66.7273 26.6241 66.5876C26.8852 66.4478 27.0978 66.2353 27.5228 65.8102L54.1812 39.1518C48.7224 35.8327 44.1359 31.2788 40.781 25.8853Z" />
</svg>
