<svg width="100" height="100" viewBox="0 0 100 100" fill="none" xmlns="http://www.w3.org/2000/svg">
<path d="M65.6668 33.3333C65.6668 41.9858 58.6526 49 50.0002 49C41.3477 49 34.3335 41.9858 34.3335 33.3333C34.3335 24.6808 41.3477 17.6666 50.0002 17.6666C58.6526 17.6666 65.6668 24.6808 65.6668 33.3333Z" stroke-width="2" stroke-linecap="round"/>
<path d="M60.8742 31.75C62.3992 29.1086 64.911 27.1812 67.8571 26.3919C70.8031 25.6025 73.9421 26.0157 76.5835 27.5407C79.2249 29.0657 81.1522 31.5775 81.9416 34.5236C82.731 37.4696 82.3178 40.6086 80.7928 43.25C79.2678 45.8914 76.756 47.8188 73.8099 48.6081C70.8639 49.3975 67.7249 48.9843 65.0835 47.4593C62.4421 45.9343 60.5147 43.4225 59.7253 40.4764C58.936 37.5304 59.3492 34.3914 60.8742 31.75L60.8742 31.75Z" stroke-width="2"/>
<path d="M19.2072 31.75C20.7322 29.1086 23.244 27.1812 26.1901 26.3919C29.1361 25.6025 32.2751 26.0157 34.9165 27.5407C37.5579 29.0657 39.4853 31.5775 40.2747 34.5236C41.064 37.4696 40.6508 40.6086 39.1258 43.25C37.6008 45.8914 35.089 47.8188 32.1429 48.6081C29.1969 49.3975 26.0579 48.9843 23.4165 47.4593C20.7751 45.9343 18.8478 43.4225 18.0584 40.4764C17.269 37.5304 17.6822 34.3914 19.2072 31.75L19.2072 31.75Z" stroke-width="2"/>
<path d="M70.3403 75L69.3599 75.1975L69.5216 76H70.3403V75ZM87.3036 73.8863L86.3244 74.0889V74.0889L87.3036 73.8863ZM61.5869 61.2939L60.9821 60.4976L59.8255 61.3761L61.0588 62.1431L61.5869 61.2939ZM86.3674 74H70.3403V76H86.3674V74ZM86.3244 74.0889C86.3233 74.0835 86.3222 74.0695 86.3269 74.0521C86.3311 74.036 86.3383 74.0241 86.3449 74.0163C86.3584 74.0004 86.3712 74 86.3674 74V76C87.5575 76 88.5422 74.9367 88.2829 73.6836L86.3244 74.0889ZM70.8335 59.3334C76.5915 59.3334 80.2379 62.08 82.5759 65.2986C84.941 68.5544 85.9507 72.2833 86.3244 74.0889L88.2829 73.6836C87.8845 71.7586 86.8004 67.711 84.194 64.1231C81.5606 60.4979 77.358 57.3334 70.8335 57.3334V59.3334ZM62.1918 62.0903C64.3358 60.4618 67.139 59.3334 70.8335 59.3334V57.3334C66.6951 57.3334 63.4684 58.6091 60.9821 60.4976L62.1918 62.0903ZM61.0588 62.1431C66.48 65.5148 68.5648 71.2493 69.3599 75.1975L71.3206 74.8026C70.4817 70.6373 68.2256 64.2451 62.115 60.4448L61.0588 62.1431Z"/>
<path d="M38.4133 61.2939L38.9414 62.143L40.1747 61.376L39.0182 60.4975L38.4133 61.2939ZM12.6966 73.8863L13.6758 74.0889L13.6758 74.0889L12.6966 73.8863ZM29.6599 75V76H30.4785L30.6402 75.1975L29.6599 75ZM29.1668 59.3334C32.8613 59.3334 35.6645 60.4618 37.8085 62.0902L39.0182 60.4975C36.5318 58.6091 33.3052 57.3334 29.1668 57.3334V59.3334ZM13.6758 74.0889C14.0495 72.2833 15.0592 68.5544 17.4244 65.2986C19.7624 62.08 23.4088 59.3334 29.1668 59.3334V57.3334C22.6423 57.3334 18.4397 60.4979 15.8062 64.1231C13.1999 67.711 12.1157 71.7586 11.7173 73.6836L13.6758 74.0889ZM13.6328 74C13.629 74 13.6418 74.0004 13.6553 74.0163C13.6619 74.0241 13.6691 74.036 13.6733 74.0521C13.678 74.0695 13.6769 74.0835 13.6758 74.0889L11.7173 73.6836C11.458 74.9367 12.4427 76 13.6328 76V74ZM29.6599 74H13.6328V76H29.6599V74ZM30.6402 75.1975C31.4353 71.2493 33.5202 65.5147 38.9414 62.143L37.8852 60.4447C31.7746 64.2451 29.5185 70.6372 28.6795 74.8026L30.6402 75.1975Z"/>
<path d="M49.9998 58.3334C68.0863 58.3334 70.471 74.0351 70.7854 78.1757C70.8272 78.7264 70.3855 79.1667 69.8332 79.1667H30.1665C29.6142 79.1667 29.1724 78.7264 29.2143 78.1757C29.5287 74.0351 31.9134 58.3334 49.9998 58.3334Z" stroke-width="2" stroke-linecap="round"/>
</svg>
