<svg width="500" height="300" viewBox="0 0 500 300" fill="none" xmlns="http://www.w3.org/2000/svg">
<g clip-path="url(#clip0_127_1672)">
<line x1="149.124" y1="14.8054" x2="491" y2="14.8054" stroke="#CE1126" stroke-width="10"/>
<line y1="-5" x2="103.977" y2="-5" transform="matrix(-0.52516 -0.851004 0.889737 -0.456474 211.001 104.887)" stroke="#CE1126" stroke-width="10"/>
<line y1="-5" x2="124.659" y2="-5" transform="matrix(0.52516 0.851004 -0.889622 0.456698 250.959 183.134)" stroke="#CE1126" stroke-width="10"/>
<g filter="url(#filter0_d_127_1672)">
<path d="M32.6144 152.826L41.1105 118.344H45.7101L46.0031 125.609L36.921 161H32.0577L32.6144 152.826ZM27.2531 118.344L34.2257 152.709V161H28.923L19.255 118.344H27.2531ZM54.8214 152.562L61.6769 118.344H69.7042L60.0363 161H54.7335L54.8214 152.562ZM47.9073 118.344L56.4034 152.943L56.9015 161H52.0382L42.9855 125.58L43.337 118.344H47.9073ZM98.6495 154.906V161H79.0792V154.906H98.6495ZM81.6866 126.869V161H73.923V126.869H81.6866ZM96.13 140.316V146.41H79.0792V140.316H96.13ZM98.6495 126.869V132.992H79.0792V126.869H98.6495ZM128.767 146.967H136.823C136.609 149.818 135.818 152.348 134.45 154.555C133.083 156.742 131.179 158.461 128.737 159.711C126.296 160.961 123.337 161.586 119.86 161.586C117.185 161.586 114.773 161.117 112.624 160.18C110.495 159.223 108.669 157.865 107.146 156.107C105.642 154.33 104.489 152.201 103.689 149.721C102.888 147.221 102.487 144.418 102.487 141.312V138.061C102.487 134.955 102.898 132.152 103.718 129.652C104.538 127.152 105.71 125.023 107.234 123.266C108.776 121.488 110.622 120.121 112.771 119.164C114.939 118.207 117.36 117.729 120.036 117.729C123.513 117.729 126.452 118.373 128.855 119.662C131.257 120.932 133.122 122.68 134.45 124.906C135.778 127.133 136.579 129.691 136.853 132.582H128.796C128.64 130.785 128.249 129.262 127.624 128.012C127.019 126.762 126.101 125.814 124.87 125.17C123.659 124.506 122.048 124.174 120.036 124.174C118.474 124.174 117.097 124.467 115.905 125.053C114.734 125.639 113.757 126.518 112.976 127.689C112.194 128.842 111.609 130.287 111.218 132.025C110.827 133.744 110.632 135.736 110.632 138.002V141.312C110.632 143.48 110.808 145.424 111.159 147.143C111.511 148.861 112.058 150.316 112.8 151.508C113.542 152.699 114.499 153.607 115.671 154.232C116.843 154.857 118.239 155.17 119.86 155.17C121.833 155.17 123.435 154.857 124.665 154.232C125.915 153.607 126.862 152.689 127.507 151.479C128.171 150.268 128.591 148.764 128.767 146.967ZM172.448 143.188V144.711C172.448 147.309 172.068 149.643 171.306 151.713C170.564 153.764 169.499 155.521 168.112 156.986C166.726 158.432 165.075 159.545 163.161 160.326C161.247 161.088 159.128 161.469 156.804 161.469C154.48 161.469 152.36 161.088 150.446 160.326C148.532 159.545 146.872 158.432 145.466 156.986C144.06 155.521 142.976 153.764 142.214 151.713C141.452 149.643 141.071 147.309 141.071 144.711V143.188C141.071 140.59 141.452 138.266 142.214 136.215C142.976 134.145 144.05 132.377 145.437 130.912C146.823 129.447 148.474 128.334 150.388 127.572C152.302 126.791 154.421 126.4 156.745 126.4C159.069 126.4 161.189 126.791 163.103 127.572C165.017 128.334 166.667 129.447 168.054 130.912C169.46 132.377 170.544 134.145 171.306 136.215C172.068 138.266 172.448 140.59 172.448 143.188ZM164.685 144.711V143.129C164.685 141.43 164.499 139.926 164.128 138.617C163.776 137.289 163.259 136.176 162.575 135.277C161.911 134.379 161.081 133.695 160.085 133.227C159.109 132.738 157.995 132.494 156.745 132.494C155.495 132.494 154.372 132.738 153.376 133.227C152.4 133.695 151.569 134.379 150.886 135.277C150.222 136.176 149.714 137.289 149.362 138.617C149.011 139.926 148.835 141.43 148.835 143.129V144.711C148.835 146.41 149.011 147.924 149.362 149.252C149.714 150.561 150.232 151.674 150.915 152.592C151.618 153.51 152.458 154.213 153.435 154.701C154.431 155.17 155.554 155.404 156.804 155.404C158.054 155.404 159.167 155.17 160.144 154.701C161.12 154.213 161.941 153.51 162.605 152.592C163.288 151.674 163.806 150.561 164.157 149.252C164.509 147.924 164.685 146.41 164.685 144.711ZM207.722 126.869V161H199.958L185.515 138.354V161H177.751V126.869H185.515L199.958 149.516V126.869H207.722ZM244.109 126.869V161H236.345L221.901 138.354V161H214.138V126.869H221.901L236.345 149.516V126.869H244.109ZM275.251 154.906V161H255.681V154.906H275.251ZM258.288 126.869V161H250.525V126.869H258.288ZM272.732 140.316V146.41H255.681V140.316H272.732ZM275.251 126.869V132.992H255.681V126.869H275.251ZM300.71 149.486H308.503C308.327 151.869 307.634 153.959 306.423 155.756C305.212 157.553 303.523 158.959 301.355 159.975C299.206 160.971 296.638 161.469 293.65 161.469C291.267 161.469 289.138 161.088 287.263 160.326C285.388 159.564 283.786 158.471 282.458 157.045C281.15 155.6 280.144 153.861 279.441 151.83C278.757 149.799 278.415 147.504 278.415 144.945V142.953C278.415 140.395 278.776 138.1 279.499 136.068C280.222 134.018 281.247 132.279 282.575 130.854C283.903 129.408 285.495 128.305 287.351 127.543C289.226 126.762 291.325 126.371 293.65 126.371C296.735 126.371 299.333 126.898 301.443 127.953C303.571 129.008 305.222 130.463 306.394 132.318C307.585 134.154 308.298 136.244 308.532 138.588H300.769C300.671 137.416 300.378 136.371 299.89 135.453C299.401 134.535 298.65 133.812 297.634 133.285C296.638 132.758 295.31 132.494 293.65 132.494C292.419 132.494 291.335 132.719 290.398 133.168C289.46 133.598 288.679 134.252 288.054 135.131C287.429 135.99 286.96 137.074 286.648 138.383C286.335 139.672 286.179 141.186 286.179 142.924V144.945C286.179 146.664 286.316 148.178 286.589 149.486C286.882 150.775 287.331 151.859 287.937 152.738C288.542 153.617 289.314 154.281 290.251 154.73C291.208 155.18 292.341 155.404 293.65 155.404C295.193 155.404 296.462 155.189 297.458 154.76C298.454 154.33 299.216 153.676 299.743 152.797C300.29 151.898 300.612 150.795 300.71 149.486ZM329.978 126.869V161H322.214V126.869H329.978ZM341.228 126.869V132.992H311.169V126.869H341.228Z" fill="#CE1126"/>
</g>
<line y1="-5" x2="326.876" y2="-5" transform="matrix(-0.51599 0.856595 -0.849651 -0.527345 485.089 10)" stroke="#CE1126" stroke-width="10"/>
</g>
<defs>
<filter id="filter0_d_127_1672" x="15.2549" y="117.729" width="329.973" height="51.8574" filterUnits="userSpaceOnUse" color-interpolation-filters="sRGB">
<feFlood flood-opacity="0" result="BackgroundImageFix"/>
<feColorMatrix in="SourceAlpha" type="matrix" values="0 0 0 0 0 0 0 0 0 0 0 0 0 0 0 0 0 0 127 0" result="hardAlpha"/>
<feOffset dy="4"/>
<feGaussianBlur stdDeviation="2"/>
<feComposite in2="hardAlpha" operator="out"/>
<feColorMatrix type="matrix" values="0 0 0 0 0 0 0 0 0 0 0 0 0 0 0 0 0 0 0.25 0"/>
<feBlend mode="normal" in2="BackgroundImageFix" result="effect1_dropShadow_127_1672"/>
<feBlend mode="normal" in="SourceGraphic" in2="effect1_dropShadow_127_1672" result="shape"/>
</filter>
<clipPath id="clip0_127_1672">
<rect width="500" height="300" rx="2" fill="white"/>
</clipPath>
</defs>
</svg>
