<svg width="80" height="80" viewBox="0 0 80 80" fill="none" xmlns="http://www.w3.org/2000/svg">
<path d="M31.1111 43.9444H4.44444C2.27614 43.9444 0.5 42.1683 0.5 40V4.44444C0.5 2.27614 2.27614 0.5 4.44444 0.5H31.1111C33.2794 0.5 35.0556 2.27614 35.0556 4.44444V40C35.0556 42.1683 33.2794 43.9444 31.1111 43.9444ZM31.1111 79.5H4.44444C2.27614 79.5 0.5 77.7239 0.5 75.5556V57.7778C0.5 55.6095 2.27614 53.8333 4.44444 53.8333H31.1111C33.2794 53.8333 35.0556 55.6095 35.0556 57.7778V75.5556C35.0556 77.7239 33.2794 79.5 31.1111 79.5ZM75.5556 79.5H48.8889C46.7206 79.5 44.9444 77.7239 44.9444 75.5556V40C44.9444 37.8317 46.7206 36.0556 48.8889 36.0556H75.5556C77.7239 36.0556 79.5 37.8317 79.5 40V75.5556C79.5 77.7239 77.7239 79.5 75.5556 79.5ZM44.9444 22.2222V4.44444C44.9444 2.27614 46.7206 0.5 48.8889 0.5H75.5556C77.7239 0.5 79.5 2.27614 79.5 4.44444V22.2222C79.5 24.3905 77.7239 26.1667 75.5556 26.1667H48.8889C46.7206 26.1667 44.9444 24.3905 44.9444 22.2222Z"/>
</svg>
