<svg width="90" height="90" viewBox="0 0 90 90" fill="none" xmlns="http://www.w3.org/2000/svg">
<path fill-rule="evenodd" clip-rule="evenodd" d="M52.266 7.75855C52.5517 8.01709 52.5945 8.44506 52.6801 9.30099L53.6912 19.412C53.8546 21.0455 53.9362 21.8623 54.489 22.0913C55.0419 22.3203 55.6772 21.8005 56.9478 20.7609L64.8122 14.3264C65.478 13.7816 65.8108 13.5093 66.1957 13.5285C66.5805 13.5477 66.8846 13.8518 67.4929 14.4601L75.5398 22.507C76.1481 23.1152 76.4522 23.4194 76.4714 23.8042C76.4906 24.189 76.2182 24.5219 75.6735 25.1877L69.2389 33.0522C68.1993 34.3228 67.6795 34.9581 67.9085 35.5109C68.1375 36.0637 68.9542 36.1454 70.5878 36.3088L80.699 37.3199C81.5549 37.4055 81.9829 37.4483 82.2415 37.734C82.5 38.0197 82.5 38.4498 82.5 39.31V50.69C82.5 51.5502 82.5 51.9803 82.2415 52.266C81.9829 52.5517 81.5549 52.5945 80.699 52.6801L70.5892 53.6911C68.9556 53.8544 68.1389 53.9361 67.9099 54.4889C67.6809 55.0417 68.2007 55.677 69.2403 56.9476L75.6737 64.8107C76.2184 65.4764 76.4907 65.8093 76.4716 66.1942C76.4524 66.579 76.1482 66.8831 75.54 67.4914L67.4931 75.5383C66.8848 76.1465 66.5807 76.4507 66.1959 76.4699C65.811 76.4891 65.4781 76.2167 64.8124 75.672L56.9479 69.2374C55.6773 68.1978 55.042 67.6781 54.4892 67.907C53.9364 68.136 53.8547 68.9528 53.6914 70.5863L52.6801 80.699C52.5945 81.5549 52.5517 81.9829 52.266 82.2415C51.9803 82.5 51.5502 82.5 50.69 82.5H39.31C38.4498 82.5 38.0197 82.5 37.734 82.2415C37.4483 81.9829 37.4055 81.5549 37.3199 80.699L36.3088 70.5878C36.1454 68.9543 36.0638 68.1375 35.5109 67.9085C34.9581 67.6795 34.3228 68.1993 33.0522 69.2389L25.1875 75.6737C24.5217 76.2184 24.1889 76.4907 23.804 76.4716C23.4192 76.4524 23.1151 76.1482 22.5068 75.54L14.4599 67.4931C13.8516 66.8848 13.5475 66.5807 13.5283 66.1959C13.5091 65.811 13.7815 65.4781 14.3262 64.8124L20.7609 56.9477C21.8005 55.6772 22.3203 55.0419 22.0913 54.489C21.8623 53.9362 21.0455 53.8545 19.412 53.6912L9.30099 52.6801C8.44506 52.5945 8.01709 52.5517 7.75855 52.266C7.5 51.9803 7.5 51.5502 7.5 50.69L7.5 39.31C7.5 38.4498 7.5 38.0197 7.75855 37.734C8.0171 37.4483 8.44506 37.4055 9.30099 37.3199L19.4134 36.3087C21.0469 36.1453 21.8637 36.0636 22.0927 35.5108C22.3217 34.958 21.8019 34.3227 20.7623 33.0521L20.7623 33.0521L14.3264 25.186C13.7817 24.5202 13.5093 24.1873 13.5285 23.8025C13.5477 23.4177 13.8518 23.1135 14.4601 22.5053L22.507 14.4584C23.1152 13.8501 23.4194 13.546 23.8042 13.5268C24.189 13.5076 24.5219 13.7799 25.1877 14.3247L33.0524 20.7594C34.323 21.799 34.9583 22.3188 35.5111 22.0898C36.0639 21.8608 36.1456 21.0441 36.3089 19.4105L37.3199 9.30099C37.4055 8.44506 37.4483 8.0171 37.734 7.75855C38.0197 7.5 38.4498 7.5 39.31 7.5H50.69C51.5502 7.5 51.9803 7.5 52.266 7.75855ZM45 60C53.2843 60 60 53.2843 60 45C60 36.7157 53.2843 30 45 30C36.7157 30 30 36.7157 30 45C30 53.2843 36.7157 60 45 60Z" />
</svg>
